<?xml version="1.0"?>
<svg xmlns="http://www.w3.org/2000/svg" id="Capa_1" enable-background="new 0 0 512 512" height="512px" viewBox="0 0 512 512" width="512px"><g><g><path d="m307.002 406c0-5.522-4.478-10-10-10h-20v-50c0-5.522-4.478-10-10-10h-30c-5.522 0-10 4.478-10 10s4.478 10 10 10h20v40h-20c-5.522 0-10 4.478-10 10s4.478 10 10 10h60c5.523 0 10-4.478 10-10z" data-original="#000000" class="active-path" data-old_color="#000000" fill="#0E2A47"/><circle cx="267.003" cy="502" r="10" data-original="#000000" class="active-path" data-old_color="#000000" fill="#0E2A47"/><path d="m312.003 512h44.999c5.522 0 10-4.478 10-10v-74.75c0-12.366 2.92-24.737 8.444-35.778l10.999-21.997c6.906-13.802 10.557-29.268 10.557-44.725v-129.39c0-18.062-12.193-33.942-29.657-38.621-11.523-3.08-23.237-.774-32.474 5.354-5.227-10.515-14.432-17.919-25.479-20.873-10.797-2.892-22.49-1.294-32.483 5.323-5.363-10.768-14.715-17.976-25.469-20.853-12.355-3.312-24.932-.426-34.438 6.731v-92.421c0-22.056-17.944-40-40-40s-40 17.944-40 40v164.03c-2.474 3.751-4.286 7.863-5.384 12.276-.051.203-.095.408-.133.614l-14.706 80.433c-6.22 32.545 4.054 65.961 27.481 89.388 14.665 14.664 22.741 34.729 22.741 56.499v58.76c0 5.522 4.478 10 10 10h45.001c5.522 0 10-4.478 10-10s-4.478-10-10-10h-35.001v-48.76c0-27.111-10.156-52.199-28.599-70.642-18.737-18.736-26.954-45.462-21.965-71.569l14.658-80.171c2.261-8.579 10.065-14.858 19.325-14.858h66.58c11.121 0 20 9.046 20 20 0 11.289-9.156 20-20 20h-30c-3.214 0-6.232 1.545-8.112 4.152-1.879 2.607-2.391 5.96-1.375 9.009 6.526 19.586-4.094 40.827-23.674 47.352-5.239 1.746-8.072 7.409-6.326 12.648 1.745 5.239 7.402 8.073 12.648 6.326 25.685-8.559 41.32-33.63 39.061-59.497l16.521.01c-.378 17.511 11.07 34.453 29.648 39.419 11.114 2.978 22.761 1.117 32.482-5.322 5.34 10.726 14.672 17.964 25.469 20.852 21.39 5.731 43.307-7.063 48.997-28.281l4.661-17.397v49.479c0 12.366-2.92 24.737-8.444 35.778l-10.999 21.997c-6.906 13.802-10.557 29.268-10.557 44.725v64.75h-34.999c-5.522 0-10 4.478-10 10s4.48 10 10.002 10zm-155.001-323.696v-148.304c0-11.028 8.972-20 20-20s20 8.972 20 20v134.292l-3.134 11.708h-23.446c-4.647 0-9.173.797-13.42 2.304zm57.57-2.304 7.189-26.851c2.856-10.652 13.849-16.992 24.507-14.14 10.669 2.855 16.998 13.81 14.135 24.49l-5.547 20.69c-5.457-2.724-11.536-4.19-17.854-4.19h-22.43zm55.993 100.099c-10.671-2.852-16.998-13.801-14.133-24.493l.202-.754c12.522-7.014 20.368-20.185 20.368-34.851 0-7.173-1.963-14.24-5.582-20.358l8.301-30.964c2.859-10.672 13.81-17.006 24.498-14.137 10.674 2.853 16.997 13.803 14.134 24.491l-23.29 86.93c-2.845 10.617-13.764 17.02-24.498 14.136zm105.748-85.536-23.29 86.928c-2.855 10.652-13.846 16.993-24.507 14.14-10.671-2.856-16.996-13.808-14.135-24.492l23.29-86.93c2.855-10.65 13.846-16.993 24.503-14.148 10.61 2.841 17.027 13.785 14.139 24.502z" data-original="#000000" class="active-path" data-old_color="#000000" fill="#0E2A47"/></g></g> </svg>
