<?xml version="1.0" standalone="no"?>
<!DOCTYPE svg PUBLIC "-//W3C//DTD SVG 20010904//EN"
 "http://www.w3.org/TR/2001/REC-SVG-20010904/DTD/svg10.dtd">
<svg version="1.0" xmlns="http://www.w3.org/2000/svg"
 width="512.000000pt" height="512.000000pt" viewBox="0 0 512.000000 512.000000"
 preserveAspectRatio="xMidYMid meet">

<g transform="translate(0.000000,512.000000) scale(0.100000,-0.100000)"
fill="#000000" stroke="none">
<path d="M2475 3669 c-110 -15 -232 -47 -323 -84 -82 -33 -216 -106 -226 -124
-3 -4 22 -77 55 -162 34 -85 65 -164 70 -176 8 -22 10 -22 86 27 356 229 743
133 743 -183 0 -115 -47 -231 -148 -367 -81 -109 -326 -354 -601 -600 l-240
-215 -1 -152 0 -153 765 0 765 0 0 205 0 205 -407 2 -406 3 124 105 c164 138
358 333 442 445 83 110 160 263 187 369 25 100 27 271 4 365 -58 238 -237 409
-494 471 -100 24 -293 33 -395 19z"/>
<path d="M4140 3669 c-159 -18 -397 -87 -471 -136 l-26 -18 49 -175 c27 -96
50 -176 52 -177 2 -2 32 10 67 26 35 16 102 41 149 57 76 25 100 28 225 28
126 1 145 -1 190 -22 161 -74 193 -241 68 -353 -75 -68 -198 -99 -390 -99
l-113 0 0 -179 0 -178 163 -6 c211 -6 305 -34 390 -116 77 -72 103 -170 74
-272 -21 -70 -62 -118 -134 -156 -84 -45 -151 -56 -289 -51 -134 6 -239 29
-376 85 -48 20 -90 35 -92 32 -2 -2 -25 -84 -51 -183 l-48 -179 24 -18 c13
-10 62 -32 109 -49 459 -168 1001 -90 1239 177 195 219 203 543 17 741 -83 89
-169 136 -326 179 -8 2 26 23 76 47 177 84 281 217 306 392 39 273 -137 500
-450 580 -112 29 -296 39 -432 23z"/>
<path d="M306 3509 c-154 -71 -281 -131 -282 -132 -2 -1 16 -86 38 -189 35
-162 43 -186 57 -179 35 19 402 191 406 191 3 0 5 -387 5 -860 l0 -860 240 0
240 0 0 1080 0 1080 -212 0 -213 -1 -279 -130z"/>
<path d="M1340 2033 c-69 -25 -145 -107 -166 -178 -25 -87 -16 -195 22 -265
54 -101 168 -159 286 -146 76 8 117 26 171 75 62 58 91 126 91 221 1 133 -51
229 -150 280 -63 32 -185 38 -254 13z"/>
</g>
</svg>
