<svg height="512" viewBox="0 0 192 192" width="512" xmlns="http://www.w3.org/2000/svg"><g id="_26-true_false" data-name="26-true false"><path d="m74.343 50.343-10.343 10.343-10.343-10.343-11.314 11.314 10.343 10.343-10.343 10.343 11.314 11.314 10.343-10.343 10.343 10.343 11.314-11.314-10.343-10.343 10.343-10.343z"/><path d="m184 88h-58.64a49.434 49.434 0 0 0 2.64-16c0-30.879-28.71-56-64-56s-64 25.121-64 56c0 15.272 6.992 29.647 19.36 40.155l-3.166 14.092a8.073 8.073 0 0 0 11.155 9.019l19.955-9.2a72.833 72.833 0 0 0 40.696-2.142v44.076a8 8 0 0 0 8 8h61.578l21.985 14.656a8.074 8.074 0 0 0 12.437-6.656v-88a8 8 0 0 0 -8-8zm-120 24a56.5 56.5 0 0 1 -15.293-2.093 8 8 0 0 0 -5.514.436l-7.839 3.614.728-3.241a8 8 0 0 0 -3.171-8.274c-10.747-7.642-16.911-18.735-16.911-30.442 0-22.056 21.533-40 48-40s48 17.944 48 40a33.978 33.978 0 0 1 -4.031 16h-11.969a8 8 0 0 0 -8 8v10.6a55.27 55.27 0 0 1 -24 5.4zm112 57.052-11.562-7.708a8 8 0 0 0 -4.438-1.344h-56v-56h72z"/><path d="m135.994 152a8 8 0 0 0 7.161-4.424l16-32-14.31-7.156-12.423 24.845-8.844-4.422-7.156 14.31 16 8a7.976 7.976 0 0 0 3.572.847z"/></g></svg>