<?xml version="1.0"?>
<svg xmlns="http://www.w3.org/2000/svg" id="Solid" viewBox="0 0 512 512" width="512" height="512"><path d="M448,168H32V456H448ZM240,352a48,48,0,0,1-96,0,8,8,0,0,1,16,0,32,32,0,1,0,32-32,8,8,0,0,1,0-16,32,32,0,1,0-32-32,8,8,0,0,1-16,0,48,48,0,1,1,74.507,40A47.994,47.994,0,0,1,240,352Zm96,40a8,8,0,0,1-16,0V247.566l-51.343,36.757a8,8,0,1,1-9.314-13.01l64-45.818A8,8,0,0,1,336,232Z"/><path d="M464,464a8,8,0,0,1-8,8H48v16H480V88H464Z"/><path d="M368,72V48a8,8,0,0,1,16,0v8h16V48a24,24,0,0,0-48,0V72H304V48a8,8,0,0,1,16,0v8h16V48a24,24,0,0,0-48,0V72H160V48a8,8,0,0,1,16,0v8h16V48a24,24,0,0,0-48,0V72H96V48a8,8,0,0,1,16,0v8h16V48a24,24,0,0,0-48,0V72H32v80H448V72Z"/></svg>
