<?xml version="1.0" encoding="iso-8859-1"?>
<!-- Generator: Adobe Illustrator 16.0.0, SVG Export Plug-In . SVG Version: 6.00 Build 0)  -->
<!DOCTYPE svg PUBLIC "-//W3C//DTD SVG 1.1//EN" "http://www.w3.org/Graphics/SVG/1.1/DTD/svg11.dtd">
<svg version="1.1" id="Capa_1" xmlns="http://www.w3.org/2000/svg" xmlns:xlink="http://www.w3.org/1999/xlink" x="0px" y="0px"
	 width="23.14px" height="23.14px" viewBox="0 0 23.14 23.14" style="enable-background:new 0 0 23.14 23.14;" xml:space="preserve"
	>
<g>
	<g>
		<circle cx="0.88" cy="6.539" r="0.88"/>
		<circle cx="2.64" cy="4.779" r="0.88"/>
		<circle cx="4.401" cy="3.018" r="0.88"/>
		<circle cx="6.162" cy="1.257" r="0.88"/>
		<circle cx="3.144" cy="8.3" r="0.88"/>
		<circle cx="4.904" cy="6.539" r="0.88"/>
		<circle cx="6.665" cy="4.779" r="0.88"/>
		<circle cx="8.426" cy="3.018" r="0.88"/>
		<circle cx="10.187" cy="1.257" r="0.88"/>
		<circle cx="22.26" cy="6.539" r="0.88"/>
		<circle cx="20.5" cy="4.778" r="0.88"/>
		<circle cx="18.738" cy="3.018" r="0.88"/>
		<circle cx="16.979" cy="1.257" r="0.88"/>
		<circle cx="19.996" cy="8.3" r="0.88"/>
		<circle cx="18.236" cy="6.54" r="0.88"/>
		<circle cx="16.475" cy="4.778" r="0.88"/>
		<circle cx="14.714" cy="3.018" r="0.88"/>
		<circle cx="12.953" cy="1.257" r="0.88"/>
		<path d="M13.18,4.787c-0.885-1.181-2.334-1.181-3.22,0l-6.841,7.782c-0.886,1.181-0.403,2.146,1.073,2.146h0.671v5.366
			c0,1.475,1.207,2.683,2.683,2.683h8.049c1.476,0,2.683-1.208,2.683-2.683v-5.366h0.672c1.476,0,1.957-0.966,1.072-2.146
			L13.18,4.787z M10.94,20.027H7.443c-0.558,0-0.783-0.539-0.396-0.945c0.81-0.864,1.576-1.424,2.45-2.217
			c0.831-0.648,0.82-1.945-0.396-1.945c-0.388,0-0.794,0.232-1.027,0.604c-0.362,0.567-1.308,0.188-0.946-0.621
			c0.405-0.793,1.19-1.108,1.973-1.108c2.135,0,2.982,2.198,1.271,3.864c-0.658,0.56-1.108,0.883-1.749,1.262
			c0.397,0,0.874-0.055,1.271-0.055h1.045C11.633,18.865,11.723,20.027,10.94,20.027z M13.826,20.064
			c-0.766,0-1.423-0.297-1.812-0.947c-0.343-0.621,0.549-1.225,0.946-0.621c0.251,0.316,0.576,0.461,0.865,0.461
			c0.647,0,1.271-0.235,1.271-1.02c0-0.641-0.623-0.865-1.188-0.865c-0.308,0-0.695,0.082-1.101,0.162
			c-0.478,0.135-0.856-0.162-0.792-0.64l0.071-2.136c0-0.469,0.317-0.631,0.722-0.631h2.614c0.756,0,0.739,1.136,0,1.136h-2.209
			l-0.054,1.09c1.414-0.377,3.127,0.226,3.127,1.884C16.285,19.361,15.178,20.064,13.826,20.064z"/>
	</g>
</g>
<g>
</g>
<g>
</g>
<g>
</g>
<g>
</g>
<g>
</g>
<g>
</g>
<g>
</g>
<g>
</g>
<g>
</g>
<g>
</g>
<g>
</g>
<g>
</g>
<g>
</g>
<g>
</g>
<g>
</g>
</svg>
